<?xml version="1.0" standalone="yes"?>

<svg version="1.1" viewBox="0.0 0.0 1152.0 864.0" fill="none" stroke="none" stroke-linecap="square" stroke-miterlimit="10" xmlns="http://www.w3.org/2000/svg" xmlns:xlink="http://www.w3.org/1999/xlink"><clipPath id="p.0"><path d="m0 0l1152.0 0l0 864.0l-1152.0 0l0 -864.0z" clip-rule="nonzero"></path></clipPath><g clip-path="url(#p.0)"><path fill="#000000" fill-opacity="0.0" d="m0 0l1152.0 0l0 864.0l-1152.0 0z" fill-rule="nonzero"></path><path fill="#cfe2f3" d="m480.0 392.0l108.0 -112.0l108.0 112.0l-108.0 112.0z" fill-rule="nonzero"></path><path stroke="#073763" stroke-width="2.0" stroke-linejoin="round" stroke-linecap="butt" d="m480.0 392.0l108.0 -112.0l108.0 112.0l-108.0 112.0z" fill-rule="nonzero"></path><path fill="#000000" fill-opacity="0.0" d="m480.0 392.0l-120.0 0" fill-rule="nonzero"></path><path stroke="#073763" stroke-width="2.0" stroke-linejoin="round" stroke-linecap="butt" d="m480.0 392.0l-108.0 0" fill-rule="evenodd"></path><path fill="#073763" stroke="#073763" stroke-width="2.0" stroke-linecap="butt" d="m372.0 388.69653l-9.076202 3.3034668l9.076202 3.3034668z" fill-rule="evenodd"></path><path fill="#cfe2f3" d="m176.0 329.33334l0 0c0 -18.409515 41.189804 -33.333344 92.0 -33.333344c50.81021 0 92.0 14.923828 92.0 33.333344l0 133.33331c0 18.409515 -41.18979 33.333344 -92.0 33.333344c-50.810196 0 -92.0 -14.923828 -92.0 -33.333344z" fill-rule="nonzero"></path><path fill="#000000" fill-opacity="0.0" d="m360.0 329.33334l0 0c0 18.409485 -41.18979 33.333313 -92.0 33.333313c-50.810196 0 -92.0 -14.923828 -92.0 -33.333313" fill-rule="nonzero"></path><path stroke="#073763" stroke-width="2.0" stroke-linejoin="round" stroke-linecap="butt" d="m360.0 329.33334l0 0c0 18.409485 -41.18979 33.333313 -92.0 33.333313c-50.810196 0 -92.0 -14.923828 -92.0 -33.333313" fill-rule="nonzero"></path><path fill="#000000" fill-opacity="0.0" d="m176.0 329.33334l0 0c0 -18.409515 41.189804 -33.333344 92.0 -33.333344c50.81021 0 92.0 14.923828 92.0 33.333344l0 133.33331c0 18.409515 -41.18979 33.333344 -92.0 33.333344c-50.810196 0 -92.0 -14.923828 -92.0 -33.333344z" fill-rule="nonzero"></path><path stroke="#073763" stroke-width="2.0" stroke-linejoin="round" stroke-linecap="butt" d="m176.0 329.33334l0 0c0 -18.409515 41.189804 -33.333344 92.0 -33.333344c50.81021 0 92.0 14.923828 92.0 33.333344l0 133.33331c0 18.409515 -41.18979 33.333344 -92.0 33.333344c-50.810196 0 -92.0 -14.923828 -92.0 -33.333344z" fill-rule="nonzero"></path><path fill="#cfe2f3" d="m881.86163 262.03723l0 0c40.99951 -42.860794 100.175476 -59.211212 132.17322 -36.5197l0 0c15.365906 10.896851 22.281067 29.523743 19.224426 51.782974c-3.0567627 22.259247 -15.834961 46.327454 -35.52362 66.90994l0 0c-40.99951 42.86078 -100.17554 59.21118 -132.17322 36.519684l0 0c-31.997742 -22.691528 -24.700317 -75.83215 16.299194 -118.6929z" fill-rule="nonzero"></path><path stroke="#073763" stroke-width="2.0" stroke-linejoin="round" stroke-linecap="butt" d="m881.86163 262.03723l0 0c40.99951 -42.860794 100.175476 -59.211212 132.17322 -36.5197l0 0c15.365906 10.896851 22.281067 29.523743 19.224426 51.782974c-3.0567627 22.259247 -15.834961 46.327454 -35.52362 66.90994l0 0c-40.99951 42.86078 -100.17554 59.21118 -132.17322 36.519684l0 0c-31.997742 -22.691528 -24.700317 -75.83215 16.299194 -118.6929z" fill-rule="nonzero"></path><path fill="#cfe2f3" d="m842.09906 309.16367l0 0c40.999573 -42.86078 100.17554 -59.211212 132.17328 -36.519714l0 0c15.365845 10.896851 22.281006 29.523743 19.224365 51.78299c-3.0567017 22.259247 -15.834961 46.327454 -35.52362 66.90994l0 0c-40.99951 42.86078 -100.175476 59.21118 -132.17322 36.519684l0 0c-31.997742 -22.691528 -24.700317 -75.83215 16.299194 -118.6929z" fill-rule="nonzero"></path><path stroke="#073763" stroke-width="2.0" stroke-linejoin="round" stroke-linecap="butt" d="m842.09906 309.16367l0 0c40.999573 -42.86078 100.17554 -59.211212 132.17328 -36.519714l0 0c15.365845 10.896851 22.281006 29.523743 19.224365 51.78299c-3.0567017 22.259247 -15.834961 46.327454 -35.52362 66.90994l0 0c-40.99951 42.86078 -100.175476 59.21118 -132.17322 36.519684l0 0c-31.997742 -22.691528 -24.700317 -75.83215 16.299194 -118.6929z" fill-rule="nonzero"></path><path fill="#cfe2f3" d="m910.33655 321.2901l0 0c40.99951 -42.86078 100.175476 -59.211212 132.17322 -36.519684l0 0c15.365845 10.89682 22.281006 29.523712 19.224365 51.78296c-3.0566406 22.259247 -15.834961 46.327454 -35.52356 66.90994l0 0c-40.999573 42.86078 -100.17554 59.21118 -132.17322 36.519684l0 0c-31.997742 -22.691498 -24.700378 -75.83215 16.299194 -118.6929z" fill-rule="nonzero"></path><path stroke="#073763" stroke-width="2.0" stroke-linejoin="round" stroke-linecap="butt" d="m910.33655 321.2901l0 0c40.99951 -42.86078 100.175476 -59.211212 132.17322 -36.519684l0 0c15.365845 10.89682 22.281006 29.523712 19.224365 51.78296c-3.0566406 22.259247 -15.834961 46.327454 -35.52356 66.90994l0 0c-40.999573 42.86078 -100.17554 59.21118 -132.17322 36.519684l0 0c-31.997742 -22.691498 -24.700378 -75.83215 16.299194 -118.6929z" fill-rule="nonzero"></path><path fill="#cfe2f3" d="m826.574 389.4165l0 0c40.99951 -42.86078 100.17554 -59.211212 132.17322 -36.519684l0 0c15.365845 10.896851 22.281067 29.523743 19.224365 51.78299c-3.0567017 22.259216 -15.8349 46.327454 -35.52356 66.90991l0 0c-40.99951 42.86078 -100.175476 59.21118 -132.17322 36.519684l0 0c-31.997742 -22.691498 -24.700317 -75.83212 16.299194 -118.6929z" fill-rule="nonzero"></path><path stroke="#073763" stroke-width="2.0" stroke-linejoin="round" stroke-linecap="butt" d="m826.574 389.4165l0 0c40.99951 -42.86078 100.17554 -59.211212 132.17322 -36.519684l0 0c15.365845 10.896851 22.281067 29.523743 19.224365 51.78299c-3.0567017 22.259216 -15.8349 46.327454 -35.52356 66.90991l0 0c-40.99951 42.86078 -100.175476 59.21118 -132.17322 36.519684l0 0c-31.997742 -22.691498 -24.700317 -75.83212 16.299194 -118.6929z" fill-rule="nonzero"></path><path fill="#cfe2f3" d="m945.81146 373.54294l0 0c40.99951 -42.86078 100.175476 -59.21118 132.17316 -36.519684l0 0c15.365845 10.896851 22.281128 29.523743 19.224365 51.78299c-3.0566406 22.259216 -15.834839 46.327454 -35.52356 66.90991l0 0c-40.99951 42.86078 -100.175476 59.211212 -132.17322 36.519684l0 0c-31.99768 -22.691498 -24.700317 -75.83212 16.299255 -118.6929z" fill-rule="nonzero"></path><path stroke="#073763" stroke-width="2.0" stroke-linejoin="round" stroke-linecap="butt" d="m945.81146 373.54294l0 0c40.99951 -42.86078 100.175476 -59.21118 132.17316 -36.519684l0 0c15.365845 10.896851 22.281128 29.523743 19.224365 51.78299c-3.0566406 22.259216 -15.834839 46.327454 -35.52356 66.90991l0 0c-40.99951 42.86078 -100.175476 59.211212 -132.17322 36.519684l0 0c-31.99768 -22.691498 -24.700317 -75.83212 16.299255 -118.6929z" fill-rule="nonzero"></path><path fill="#cfe2f3" d="m810.0489 461.66937l0 0c40.99951 -42.86078 100.175476 -59.21118 132.17322 -36.519684l0 0c15.365845 10.896851 22.281067 29.523743 19.224365 51.78299c-3.0567017 22.259216 -15.8349 46.327454 -35.52356 66.90991l0 0c-40.99951 42.86078 -100.17554 59.21118 -132.17322 36.519714l0 0c-31.997742 -22.691528 -24.700317 -75.83215 16.299194 -118.69293z" fill-rule="nonzero"></path><path stroke="#073763" stroke-width="2.0" stroke-linejoin="round" stroke-linecap="butt" d="m810.0489 461.66937l0 0c40.99951 -42.86078 100.175476 -59.21118 132.17322 -36.519684l0 0c15.365845 10.896851 22.281067 29.523743 19.224365 51.78299c-3.0567017 22.259216 -15.8349 46.327454 -35.52356 66.90991l0 0c-40.99951 42.86078 -100.17554 59.21118 -132.17322 36.519714l0 0c-31.997742 -22.691528 -24.700317 -75.83215 16.299194 -118.69293z" fill-rule="nonzero"></path><path fill="#cfe2f3" d="m930.2863 469.7958l0 0c40.999573 -42.86078 100.175476 -59.21118 132.17328 -36.519684l0 0c15.365845 10.896851 22.281006 29.523743 19.224365 51.78299c-3.0567627 22.259216 -15.834961 46.327423 -35.52356 66.90994l0 0c-40.999573 42.86078 -100.17554 59.21118 -132.17328 36.519653l0 0c-31.997742 -22.691528 -24.700317 -75.83215 16.299194 -118.6929z" fill-rule="nonzero"></path><path stroke="#073763" stroke-width="2.0" stroke-linejoin="round" stroke-linecap="butt" d="m930.2863 469.7958l0 0c40.999573 -42.86078 100.175476 -59.21118 132.17328 -36.519684l0 0c15.365845 10.896851 22.281006 29.523743 19.224365 51.78299c-3.0567627 22.259216 -15.834961 46.327423 -35.52356 66.90994l0 0c-40.999573 42.86078 -100.17554 59.21118 -132.17328 36.519653l0 0c-31.997742 -22.691528 -24.700317 -75.83215 16.299194 -118.6929z" fill-rule="nonzero"></path><path fill="#000000" fill-opacity="0.0" d="m696.0 392.0l112.0 -64.0" fill-rule="nonzero"></path><path stroke="#073763" stroke-width="2.0" stroke-linejoin="round" stroke-linecap="butt" d="m696.0 392.0l101.581116 -58.046356" fill-rule="evenodd"></path><path fill="#073763" stroke="#073763" stroke-width="2.0" stroke-linecap="butt" d="m799.22003 336.82187l6.241394 -7.3712463l-9.519348 1.6348267z" fill-rule="evenodd"></path><path fill="#000000" fill-opacity="0.0" d="m696.0 392.0l88.0 -8.0" fill-rule="nonzero"></path><path stroke="#073763" stroke-width="2.0" stroke-linejoin="round" stroke-linecap="butt" d="m696.0 392.0l76.04932 -6.9136047" fill-rule="evenodd"></path><path fill="#073763" stroke="#073763" stroke-width="2.0" stroke-linecap="butt" d="m772.3484 388.3763l8.739807 -4.111603l-9.338013 -2.4681702z" fill-rule="evenodd"></path><path fill="#000000" fill-opacity="0.0" d="m696.0 392.0l80.0 40.0" fill-rule="nonzero"></path><path stroke="#073763" stroke-width="2.0" stroke-linejoin="round" stroke-linecap="butt" d="m696.0 392.0l69.26691 34.633453" fill-rule="evenodd"></path><path fill="#073763" stroke="#073763" stroke-width="2.0" stroke-linecap="butt" d="m763.7895 429.58813l9.595398 1.1043091l-6.640686 -7.0137024z" fill-rule="evenodd"></path><path fill="#000000" fill-opacity="0.0" d="m696.0 392.0l64.0 88.0" fill-rule="nonzero"></path><path stroke="#073763" stroke-width="2.0" stroke-linejoin="round" stroke-linecap="butt" d="m696.0 392.0l56.941956 78.295166" fill-rule="evenodd"></path><path fill="#073763" stroke="#073763" stroke-width="2.0" stroke-linecap="butt" d="m750.2703 472.23816l8.009949 5.3972473l-2.666687 -9.283234z" fill-rule="evenodd"></path><path fill="#cfe2f3" d="m493.05884 798.51984l-50.961914 -50.244507l24.758545 -76.07788l70.770325 -10.622498l50.961914 50.244507l-24.758545 76.07788z" fill-rule="nonzero"></path><path stroke="#073763" stroke-width="2.0" stroke-linejoin="round" stroke-linecap="butt" d="m493.05884 798.51984l-50.961914 -50.244507l24.758545 -76.07788l70.770325 -10.622498l50.961914 50.244507l-24.758545 76.07788z" fill-rule="nonzero"></path><path fill="#cfe2f3" d="m513.2253 788.25757l-50.961945 -50.244568l24.758575 -76.07782l70.77026 -10.622498l50.961975 50.244507l-24.758606 76.07788z" fill-rule="nonzero"></path><path stroke="#073763" stroke-width="2.0" stroke-linejoin="round" stroke-linecap="butt" d="m513.2253 788.25757l-50.961945 -50.244568l24.758575 -76.07782l70.77026 -10.622498l50.961975 50.244507l-24.758606 76.07788z" fill-rule="nonzero"></path><path fill="#cfe2f3" d="m533.39166 777.9952l-50.961884 -50.244507l24.758545 -76.07788l70.770294 -10.622498l50.961914 50.244507l-24.758545 76.07788z" fill-rule="nonzero"></path><path stroke="#073763" stroke-width="2.0" stroke-linejoin="round" stroke-linecap="butt" d="m533.39166 777.9952l-50.961884 -50.244507l24.758545 -76.07788l70.770294 -10.622498l50.961914 50.244507l-24.758545 76.07788z" fill-rule="nonzero"></path><path fill="#cfe2f3" d="m553.5581 767.73285l-50.961914 -50.244507l24.758545 -76.07788l70.770325 -10.622498l50.961914 50.244507l-24.758545 76.07788z" fill-rule="nonzero"></path><path stroke="#073763" stroke-width="2.0" stroke-linejoin="round" stroke-linecap="butt" d="m553.5581 767.73285l-50.961914 -50.244507l24.758545 -76.07788l70.770325 -10.622498l50.961914 50.244507l-24.758545 76.07788z" fill-rule="nonzero"></path><path fill="#cfe2f3" d="m573.72455 757.4706l-50.961914 -50.244568l24.758545 -76.07788l70.77026 -10.622437l50.961914 50.244507l-24.758545 76.07788z" fill-rule="nonzero"></path><path stroke="#073763" stroke-width="2.0" stroke-linejoin="round" stroke-linecap="butt" d="m573.72455 757.4706l-50.961914 -50.244568l24.758545 -76.07788l70.77026 -10.622437l50.961914 50.244507l-24.758545 76.07788z" fill-rule="nonzero"></path><path fill="#cfe2f3" d="m593.8909 747.20825l-50.961914 -50.244507l24.758545 -76.07788l70.770325 -10.622498l50.961914 50.244507l-24.758545 76.07788z" fill-rule="nonzero"></path><path stroke="#073763" stroke-width="2.0" stroke-linejoin="round" stroke-linecap="butt" d="m593.8909 747.20825l-50.961914 -50.244507l24.758545 -76.07788l70.770325 -10.622498l50.961914 50.244507l-24.758545 76.07788z" fill-rule="nonzero"></path><path fill="#cfe2f3" d="m614.0574 736.94586l-50.961914 -50.244507l24.758545 -76.07788l70.770325 -10.622498l50.961914 50.244507l-24.758545 76.07788z" fill-rule="nonzero"></path><path stroke="#073763" stroke-width="2.0" stroke-linejoin="round" stroke-linecap="butt" d="m614.0574 736.94586l-50.961914 -50.244507l24.758545 -76.07788l70.770325 -10.622498l50.961914 50.244507l-24.758545 76.07788z" fill-rule="nonzero"></path><path fill="#cfe2f3" d="m634.2238 726.68353l-50.961975 -50.244507l24.758606 -76.07788l70.77026 -10.622437l50.961914 50.244507l-24.758545 76.07788z" fill-rule="nonzero"></path><path stroke="#073763" stroke-width="2.0" stroke-linejoin="round" stroke-linecap="butt" d="m634.2238 726.68353l-50.961975 -50.244507l24.758606 -76.07788l70.77026 -10.622437l50.961914 50.244507l-24.758545 76.07788z" fill-rule="nonzero"></path><path fill="#cfe2f3" d="m654.3902 716.42126l-50.961914 -50.244507l24.758545 -76.07788l70.770325 -10.622498l50.961914 50.244507l-24.758545 76.07788z" fill-rule="nonzero"></path><path stroke="#073763" stroke-width="2.0" stroke-linejoin="round" stroke-linecap="butt" d="m654.3902 716.42126l-50.961914 -50.244507l24.758545 -76.07788l70.770325 -10.622498l50.961914 50.244507l-24.758545 76.07788z" fill-rule="nonzero"></path><path fill="#000000" fill-opacity="0.0" d="m584.0 504.0l-24.0 80.0" fill-rule="nonzero"></path><path stroke="#073763" stroke-width="2.0" stroke-linejoin="round" stroke-linecap="butt" d="m584.0 504.0l-20.551819 68.50604" fill-rule="evenodd"></path><path fill="#073763" stroke="#073763" stroke-width="2.0" stroke-linecap="butt" d="m560.28406 571.5568l0.5560913 9.6427l5.772156 -7.7442017z" fill-rule="evenodd"></path><path fill="#000000" fill-opacity="0.0" d="m592.0 504.0l24.0 72.0" fill-rule="nonzero"></path><path stroke="#073763" stroke-width="2.0" stroke-linejoin="round" stroke-linecap="butt" d="m592.0 504.0l20.205261 60.615784" fill-rule="evenodd"></path><path fill="#073763" stroke="#073763" stroke-width="2.0" stroke-linecap="butt" d="m609.07135 565.66046l6.0040894 7.565796l0.26379395 -9.65509z" fill-rule="evenodd"></path><path fill="#000000" fill-opacity="0.0" d="m600.0 504.0l56.0 40.0" fill-rule="nonzero"></path><path stroke="#073763" stroke-width="2.0" stroke-linejoin="round" stroke-linecap="butt" d="m600.0 504.0l46.23517 33.025146" fill-rule="evenodd"></path><path fill="#073763" stroke="#073763" stroke-width="2.0" stroke-linecap="butt" d="m644.3151 539.71326l9.305664 2.5873413l-5.465515 -7.963623z" fill-rule="evenodd"></path><path fill="#000000" fill-opacity="0.0" d="m224.0 392.0l88.0 0l0 48.0l-88.0 0z" fill-rule="nonzero"></path><path fill="#000000" d="m240.43678 422.16406l0 -13.59375l4.6875 0q1.578125 0 2.421875 0.1875q1.15625 0.265625 1.984375 0.96875q1.078125 0.921875 1.609375 2.34375q0.53125 1.40625 0.53125 3.21875q0 1.546875 -0.359375 2.75q-0.359375 1.1875 -0.921875 1.984375q-0.5625 0.78125 -1.234375 1.234375q-0.671875 0.4375 -1.625 0.671875q-0.953125 0.234375 -2.1875 0.234375l-4.90625 0zm1.796875 -1.609375l2.90625 0q1.34375 0 2.109375 -0.25q0.765625 -0.25 1.21875 -0.703125q0.640625 -0.640625 1.0 -1.71875q0.359375 -1.078125 0.359375 -2.625q0 -2.125 -0.703125 -3.265625q-0.703125 -1.15625 -1.703125 -1.546875q-0.71875 -0.28125 -2.328125 -0.28125l-2.859375 0l0 10.390625zm11.066696 -2.765625l1.6875 -0.140625q0.125 1.015625 0.5625 1.671875q0.4375 0.65625 1.359375 1.0625q0.9375 0.40625 2.09375 0.40625q1.03125 0 1.8125 -0.3125q0.796875 -0.3125 1.1875 -0.84375q0.390625 -0.53125 0.390625 -1.15625q0 -0.640625 -0.375 -1.109375q-0.375 -0.484375 -1.234375 -0.8125q-0.546875 -0.21875 -2.421875 -0.65625q-1.875 -0.453125 -2.625 -0.859375q-0.96875 -0.515625 -1.453125 -1.265625q-0.46875 -0.75 -0.46875 -1.6875q0 -1.03125 0.578125 -1.921875q0.59375 -0.90625 1.703125 -1.359375q1.125 -0.46875 2.5 -0.46875q1.515625 0 2.671875 0.484375q1.15625 0.484375 1.765625 1.4375q0.625 0.9375 0.671875 2.140625l-1.71875 0.125q-0.140625 -1.28125 -0.953125 -1.9375q-0.796875 -0.671875 -2.359375 -0.671875q-1.625 0 -2.375 0.609375q-0.75 0.59375 -0.75 1.4375q0 0.734375 0.53125 1.203125q0.515625 0.46875 2.703125 0.96875q2.203125 0.5 3.015625 0.875q1.1875 0.546875 1.75 1.390625q0.578125 0.828125 0.578125 1.921875q0 1.09375 -0.625 2.0625q-0.625 0.953125 -1.796875 1.484375q-1.15625 0.53125 -2.609375 0.53125q-1.84375 0 -3.09375 -0.53125q-1.25 -0.546875 -1.96875 -1.625q-0.703125 -1.078125 -0.734375 -2.453125zm16.490448 2.875l0.234375 1.484375q-0.703125 0.140625 -1.265625 0.140625q-0.90625 0 -1.40625 -0.28125q-0.5 -0.296875 -0.703125 -0.75q-0.203125 -0.46875 -0.203125 -1.984375l0 -5.65625l-1.234375 0l0 -1.3125l1.234375 0l0 -2.4375l1.65625 -1.0l0 3.4375l1.6875 0l0 1.3125l-1.6875 0l0 5.75q0 0.71875 0.078125 0.921875q0.09375 0.203125 0.296875 0.328125q0.203125 0.125 0.578125 0.125q0.265625 0 0.734375 -0.078125zm0.9020691 -3.421875q0 -2.734375 1.53125 -4.0625q1.265625 -1.09375 3.09375 -1.09375q2.03125 0 3.3125 1.34375q1.296875 1.328125 1.296875 3.671875q0 1.90625 -0.578125 3.0q-0.5625 1.078125 -1.65625 1.6875q-1.078125 0.59375 -2.375 0.59375q-2.0625 0 -3.34375 -1.328125q-1.28125 -1.328125 -1.28125 -3.8125zm1.71875 0q0 1.890625 0.828125 2.828125q0.828125 0.9375 2.078125 0.9375q1.25 0 2.0625 -0.9375q0.828125 -0.953125 0.828125 -2.890625q0 -1.828125 -0.828125 -2.765625q-0.828125 -0.9375 -2.0625 -0.9375q-1.25 0 -2.078125 0.9375q-0.828125 0.9375 -0.828125 2.828125zm9.266327 4.921875l0 -9.859375l1.5 0l0 1.5q0.578125 -1.046875 1.0625 -1.375q0.484375 -0.34375 1.078125 -0.34375q0.84375 0 1.71875 0.546875l-0.578125 1.546875q-0.609375 -0.359375 -1.234375 -0.359375q-0.546875 0 -0.984375 0.328125q-0.421875 0.328125 -0.609375 0.90625q-0.28125 0.890625 -0.28125 1.953125l0 5.15625l-1.671875 0zm12.978302 -3.171875l1.71875 0.21875q-0.40625 1.5 -1.515625 2.34375q-1.09375 0.828125 -2.8125 0.828125q-2.15625 0 -3.421875 -1.328125q-1.265625 -1.328125 -1.265625 -3.734375q0 -2.484375 1.265625 -3.859375q1.28125 -1.375 3.328125 -1.375q1.984375 0 3.234375 1.34375q1.25 1.34375 1.25 3.796875q0 0.140625 -0.015625 0.4375l-7.34375 0q0.09375 1.625 0.921875 2.484375q0.828125 0.859375 2.0625 0.859375q0.90625 0 1.546875 -0.46875q0.65625 -0.484375 1.046875 -1.546875zm-5.484375 -2.703125l5.5 0q-0.109375 -1.234375 -0.625 -1.859375q-0.796875 -0.96875 -2.078125 -0.96875q-1.140625 0 -1.9375 0.78125q-0.78125 0.765625 -0.859375 2.046875z" fill-rule="nonzero"></path><path fill="#000000" fill-opacity="0.0" d="m536.0 368.0l104.0 0l0 48.0l-104.0 0z" fill-rule="nonzero"></path><path fill="#000000" d="m555.9012 392.83594l0 -1.609375l5.765625 0l0 5.046875q-1.328125 1.0625 -2.75 1.59375q-1.40625 0.53125 -2.890625 0.53125q-2.0 0 -3.640625 -0.859375q-1.625 -0.859375 -2.46875 -2.484375q-0.828125 -1.625 -0.828125 -3.625q0 -1.984375 0.828125 -3.703125q0.828125 -1.71875 2.390625 -2.546875q1.5625 -0.84375 3.59375 -0.84375q1.46875 0 2.65625 0.484375q1.203125 0.46875 1.875 1.328125q0.671875 0.84375 1.03125 2.21875l-1.625 0.4375q-0.3125 -1.03125 -0.765625 -1.625q-0.453125 -0.59375 -1.296875 -0.953125q-0.84375 -0.359375 -1.875 -0.359375q-1.234375 0 -2.140625 0.375q-0.890625 0.375 -1.453125 1.0q-0.546875 0.609375 -0.84375 1.34375q-0.53125 1.25 -0.53125 2.734375q0 1.8125 0.625 3.046875q0.640625 1.21875 1.828125 1.8125q1.203125 0.59375 2.546875 0.59375q1.171875 0 2.28125 -0.453125q1.109375 -0.453125 1.6875 -0.953125l0 -2.53125l-4.0 0zm14.370789 4.109375q-0.9375 0.796875 -1.796875 1.125q-0.859375 0.3125 -1.84375 0.3125q-1.609375 0 -2.484375 -0.78125q-0.875 -0.796875 -0.875 -2.03125q0 -0.734375 0.328125 -1.328125q0.328125 -0.59375 0.859375 -0.953125q0.53125 -0.359375 1.203125 -0.546875q0.5 -0.140625 1.484375 -0.25q2.03125 -0.25 2.984375 -0.578125q0 -0.34375 0 -0.4375q0 -1.015625 -0.46875 -1.4375q-0.640625 -0.5625 -1.90625 -0.5625q-1.171875 0 -1.734375 0.40625q-0.5625 0.40625 -0.828125 1.46875l-1.640625 -0.234375q0.234375 -1.046875 0.734375 -1.6875q0.515625 -0.640625 1.46875 -0.984375q0.96875 -0.359375 2.25 -0.359375q1.265625 0 2.046875 0.296875q0.78125 0.296875 1.15625 0.75q0.375 0.453125 0.515625 1.140625q0.09375 0.421875 0.09375 1.53125l0 2.234375q0 2.328125 0.09375 2.953125q0.109375 0.609375 0.4375 1.171875l-1.75 0q-0.265625 -0.515625 -0.328125 -1.21875zm-0.140625 -3.71875q-0.90625 0.359375 -2.734375 0.625q-1.03125 0.140625 -1.453125 0.328125q-0.421875 0.1875 -0.65625 0.546875q-0.234375 0.359375 -0.234375 0.796875q0 0.671875 0.5 1.125q0.515625 0.4375 1.484375 0.4375q0.96875 0 1.71875 -0.421875q0.75 -0.4375 1.109375 -1.15625q0.265625 -0.578125 0.265625 -1.671875l0 -0.609375zm4.0788574 8.71875l0 -13.640625l1.53125 0l0 1.28125q0.53125 -0.75 1.203125 -1.125q0.6875 -0.375 1.640625 -0.375q1.265625 0 2.234375 0.65625q0.96875 0.640625 1.453125 1.828125q0.5 1.1875 0.5 2.59375q0 1.515625 -0.546875 2.734375q-0.546875 1.203125 -1.578125 1.84375q-1.03125 0.640625 -2.171875 0.640625q-0.84375 0 -1.515625 -0.34375q-0.65625 -0.359375 -1.078125 -0.890625l0 4.796875l-1.671875 0zm1.515625 -8.65625q0 1.90625 0.765625 2.8125q0.78125 0.90625 1.875 0.90625q1.109375 0 1.890625 -0.9375q0.796875 -0.9375 0.796875 -2.921875q0 -1.875 -0.78125 -2.8125q-0.765625 -0.9375 -1.84375 -0.9375q-1.0625 0 -1.890625 1.0q-0.8125 1.0 -0.8125 2.890625zm14.262146 4.875l0 -13.59375l4.6875 0q1.578125 0 2.421875 0.1875q1.15625 0.265625 1.984375 0.96875q1.078125 0.921875 1.609375 2.34375q0.53125 1.40625 0.53125 3.21875q0 1.546875 -0.359375 2.75q-0.359375 1.1875 -0.921875 1.984375q-0.5625 0.78125 -1.234375 1.234375q-0.671875 0.4375 -1.625 0.671875q-0.953125 0.234375 -2.1875 0.234375l-4.90625 0zm1.796875 -1.609375l2.90625 0q1.34375 0 2.109375 -0.25q0.765625 -0.25 1.21875 -0.703125q0.640625 -0.640625 1.0 -1.71875q0.359375 -1.078125 0.359375 -2.625q0 -2.125 -0.703125 -3.265625q-0.703125 -1.15625 -1.703125 -1.546875q-0.71875 -0.28125 -2.328125 -0.28125l-2.859375 0l0 10.390625zm17.894836 0.390625q-0.9375 0.796875 -1.796875 1.125q-0.859375 0.3125 -1.84375 0.3125q-1.609375 0 -2.484375 -0.78125q-0.875 -0.796875 -0.875 -2.03125q0 -0.734375 0.328125 -1.328125q0.328125 -0.59375 0.859375 -0.953125q0.53125 -0.359375 1.203125 -0.546875q0.5 -0.140625 1.484375 -0.25q2.03125 -0.25 2.984375 -0.578125q0 -0.34375 0 -0.4375q0 -1.015625 -0.46875 -1.4375q-0.640625 -0.5625 -1.90625 -0.5625q-1.171875 0 -1.734375 0.40625q-0.5625 0.40625 -0.828125 1.46875l-1.640625 -0.234375q0.234375 -1.046875 0.734375 -1.6875q0.515625 -0.640625 1.46875 -0.984375q0.96875 -0.359375 2.25 -0.359375q1.265625 0 2.046875 0.296875q0.78125 0.296875 1.15625 0.75q0.375 0.453125 0.515625 1.140625q0.09375 0.421875 0.09375 1.53125l0 2.234375q0 2.328125 0.09375 2.953125q0.109375 0.609375 0.4375 1.171875l-1.75 0q-0.265625 -0.515625 -0.328125 -1.21875zm-0.140625 -3.71875q-0.90625 0.359375 -2.734375 0.625q-1.03125 0.140625 -1.453125 0.328125q-0.421875 0.1875 -0.65625 0.546875q-0.234375 0.359375 -0.234375 0.796875q0 0.671875 0.5 1.125q0.515625 0.4375 1.484375 0.4375q0.96875 0 1.71875 -0.421875q0.75 -0.4375 1.109375 -1.15625q0.265625 -0.578125 0.265625 -1.671875l0 -0.609375zm7.7351074 3.4375l0.234375 1.484375q-0.703125 0.140625 -1.265625 0.140625q-0.90625 0 -1.40625 -0.28125q-0.5 -0.296875 -0.703125 -0.75q-0.203125 -0.46875 -0.203125 -1.984375l0 -5.65625l-1.234375 0l0 -1.3125l1.234375 0l0 -2.4375l1.65625 -1.0l0 3.4375l1.6875 0l0 1.3125l-1.6875 0l0 5.75q0 0.71875 0.078125 0.921875q0.09375 0.203125 0.296875 0.328125q0.203125 0.125 0.578125 0.125q0.265625 0 0.734375 -0.078125zm7.9645386 0.28125q-0.9375 0.796875 -1.796875 1.125q-0.859375 0.3125 -1.84375 0.3125q-1.609375 0 -2.484375 -0.78125q-0.875 -0.796875 -0.875 -2.03125q0 -0.734375 0.328125 -1.328125q0.328125 -0.59375 0.859375 -0.953125q0.53125 -0.359375 1.203125 -0.546875q0.5 -0.140625 1.484375 -0.25q2.03125 -0.25 2.984375 -0.578125q0 -0.34375 0 -0.4375q0 -1.015625 -0.46875 -1.4375q-0.640625 -0.5625 -1.90625 -0.5625q-1.171875 0 -1.734375 0.40625q-0.5625 0.40625 -0.828125 1.46875l-1.640625 -0.234375q0.234375 -1.046875 0.734375 -1.6875q0.515625 -0.640625 1.46875 -0.984375q0.96875 -0.359375 2.25 -0.359375q1.265625 0 2.046875 0.296875q0.78125 0.296875 1.15625 0.75q0.375 0.453125 0.515625 1.140625q0.09375 0.421875 0.09375 1.53125l0 2.234375q0 2.328125 0.09375 2.953125q0.109375 0.609375 0.4375 1.171875l-1.75 0q-0.265625 -0.515625 -0.328125 -1.21875zm-0.140625 -3.71875q-0.90625 0.359375 -2.734375 0.625q-1.03125 0.140625 -1.453125 0.328125q-0.421875 0.1875 -0.65625 0.546875q-0.234375 0.359375 -0.234375 0.796875q0 0.671875 0.5 1.125q0.515625 0.4375 1.484375 0.4375q0.96875 0 1.71875 -0.421875q0.75 -0.4375 1.109375 -1.15625q0.265625 -0.578125 0.265625 -1.671875l0 -0.609375z" fill-rule="nonzero"></path><path fill="#000000" fill-opacity="0.0" d="m616.0 624.0l120.0 0l0 48.0l-120.0 0z" fill-rule="nonzero"></path><path fill="#000000" d="m654.1971 654.16406l5.234375 -13.59375l1.9375 0l5.5625 13.59375l-2.046875 0l-1.59375 -4.125l-5.6875 0l-1.484375 4.125l-1.921875 0zm3.921875 -5.578125l4.609375 0l-1.40625 -3.78125q-0.65625 -1.703125 -0.96875 -2.8125q-0.265625 1.3125 -0.734375 2.59375l-1.5 4.0zm13.4591675 4.078125l0.234375 1.484375q-0.703125 0.140625 -1.265625 0.140625q-0.90625 0 -1.40625 -0.28125q-0.5 -0.296875 -0.703125 -0.75q-0.203125 -0.46875 -0.203125 -1.984375l0 -5.65625l-1.234375 0l0 -1.3125l1.234375 0l0 -2.4375l1.65625 -1.0l0 3.4375l1.6875 0l0 1.3125l-1.6875 0l0 5.75q0 0.71875 0.078125 0.921875q0.09375 0.203125 0.296875 0.328125q0.203125 0.125 0.578125 0.125q0.265625 0 0.734375 -0.078125zm0.9020386 -3.421875q0 -2.734375 1.53125 -4.0625q1.265625 -1.09375 3.09375 -1.09375q2.03125 0 3.3125 1.34375q1.296875 1.328125 1.296875 3.671875q0 1.90625 -0.578125 3.0q-0.5625 1.078125 -1.65625 1.6875q-1.078125 0.59375 -2.375 0.59375q-2.0625 0 -3.34375 -1.328125q-1.28125 -1.328125 -1.28125 -3.8125zm1.71875 0q0 1.890625 0.828125 2.828125q0.828125 0.9375 2.078125 0.9375q1.25 0 2.0625 -0.9375q0.828125 -0.953125 0.828125 -2.890625q0 -1.828125 -0.828125 -2.765625q-0.828125 -0.9375 -2.0625 -0.9375q-1.25 0 -2.078125 0.9375q-0.828125 0.9375 -0.828125 2.828125zm9.281982 4.921875l0 -9.859375l1.5 0l0 1.390625q0.453125 -0.71875 1.21875 -1.15625q0.78125 -0.453125 1.765625 -0.453125q1.09375 0 1.796875 0.453125q0.703125 0.453125 0.984375 1.28125q1.171875 -1.734375 3.046875 -1.734375q1.46875 0 2.25 0.8125q0.796875 0.8125 0.796875 2.5l0 6.765625l-1.671875 0l0 -6.203125q0 -1.0 -0.15625 -1.4375q-0.15625 -0.453125 -0.59375 -0.71875q-0.421875 -0.265625 -1.0 -0.265625q-1.03125 0 -1.71875 0.6875q-0.6875 0.6875 -0.6875 2.21875l0 5.71875l-1.671875 0l0 -6.40625q0 -1.109375 -0.40625 -1.65625q-0.40625 -0.5625 -1.34375 -0.5625q-0.703125 0 -1.3125 0.375q-0.59375 0.359375 -0.859375 1.078125q-0.265625 0.71875 -0.265625 2.0625l0 5.109375l-1.671875 0z" fill-rule="nonzero"></path><path fill="#000000" fill-opacity="0.0" d="m944.0 472.0l72.0 0l0 48.0l-72.0 0z" fill-rule="nonzero"></path><path fill="#000000" d="m964.6637 502.16406l-3.609375 -13.59375l1.84375 0l2.0625 8.90625q0.34375 1.40625 0.578125 2.78125q0.515625 -2.171875 0.609375 -2.515625l2.59375 -9.171875l2.171875 0l1.953125 6.875q0.734375 2.5625 1.046875 4.8125q0.265625 -1.28125 0.6875 -2.953125l2.125 -8.734375l1.8125 0l-3.734375 13.59375l-1.734375 0l-2.859375 -10.359375q-0.359375 -1.296875 -0.421875 -1.59375q-0.21875 0.9375 -0.40625 1.59375l-2.890625 10.359375l-1.828125 0zm21.764893 -3.171875l1.71875 0.21875q-0.40625 1.5 -1.515625 2.34375q-1.09375 0.828125 -2.8125 0.828125q-2.15625 0 -3.421875 -1.328125q-1.265625 -1.328125 -1.265625 -3.734375q0 -2.484375 1.265625 -3.859375q1.28125 -1.375 3.328125 -1.375q1.984375 0 3.234375 1.34375q1.25 1.34375 1.25 3.796875q0 0.140625 -0.015625 0.4375l-7.34375 0q0.09375 1.625 0.921875 2.484375q0.828125 0.859375 2.0625 0.859375q0.90625 0 1.546875 -0.46875q0.65625 -0.484375 1.046875 -1.546875zm-5.484375 -2.703125l5.5 0q-0.109375 -1.234375 -0.625 -1.859375q-0.796875 -0.96875 -2.078125 -0.96875q-1.140625 0 -1.9375 0.78125q-0.78125 0.765625 -0.859375 2.046875zm10.656982 5.875l-1.546875 0l0 -13.59375l1.65625 0l0 4.84375q1.0625 -1.328125 2.703125 -1.328125q0.90625 0 1.71875 0.375q0.8125 0.359375 1.328125 1.03125q0.53125 0.65625 0.828125 1.59375q0.296875 0.9375 0.296875 2.0q0 2.53125 -1.25 3.921875q-1.25 1.375 -3.0 1.375q-1.75 0 -2.734375 -1.453125l0 1.234375zm-0.015625 -5.0q0 1.765625 0.46875 2.5625q0.796875 1.28125 2.140625 1.28125q1.09375 0 1.890625 -0.9375q0.796875 -0.953125 0.796875 -2.84375q0 -1.921875 -0.765625 -2.84375q-0.765625 -0.921875 -1.84375 -0.921875q-1.09375 0 -1.890625 0.953125q-0.796875 0.953125 -0.796875 2.75z" fill-rule="nonzero"></path><path fill="#000000" fill-opacity="0.0" d="m800.0 496.0l72.0 0l0 48.0l-72.0 0z" fill-rule="nonzero"></path><path fill="#000000" d="m820.6637 526.16406l-3.609375 -13.59375l1.84375 0l2.0625 8.90625q0.34375 1.40625 0.578125 2.78125q0.515625 -2.171875 0.609375 -2.515625l2.59375 -9.171875l2.171875 0l1.953125 6.875q0.734375 2.5625 1.046875 4.8125q0.265625 -1.28125 0.6875 -2.953125l2.125 -8.734375l1.8125 0l-3.734375 13.59375l-1.734375 0l-2.859375 -10.359375q-0.359375 -1.296875 -0.421875 -1.59375q-0.21875 0.9375 -0.40625 1.59375l-2.890625 10.359375l-1.828125 0zm21.764893 -3.171875l1.71875 0.21875q-0.40625 1.5 -1.515625 2.34375q-1.09375 0.828125 -2.8125 0.828125q-2.15625 0 -3.421875 -1.328125q-1.265625 -1.328125 -1.265625 -3.734375q0 -2.484375 1.265625 -3.859375q1.28125 -1.375 3.328125 -1.375q1.984375 0 3.234375 1.34375q1.25 1.34375 1.25 3.796875q0 0.140625 -0.015625 0.4375l-7.34375 0q0.09375 1.625 0.921875 2.484375q0.828125 0.859375 2.0625 0.859375q0.90625 0 1.546875 -0.46875q0.65625 -0.484375 1.046875 -1.546875zm-5.484375 -2.703125l5.5 0q-0.109375 -1.234375 -0.625 -1.859375q-0.796875 -0.96875 -2.078125 -0.96875q-1.140625 0 -1.9375 0.78125q-0.78125 0.765625 -0.859375 2.046875zm10.656982 5.875l-1.546875 0l0 -13.59375l1.65625 0l0 4.84375q1.0625 -1.328125 2.703125 -1.328125q0.90625 0 1.71875 0.375q0.8125 0.359375 1.328125 1.03125q0.53125 0.65625 0.828125 1.59375q0.296875 0.9375 0.296875 2.0q0 2.53125 -1.25 3.921875q-1.25 1.375 -3.0 1.375q-1.75 0 -2.734375 -1.453125l0 1.234375zm-0.015625 -5.0q0 1.765625 0.46875 2.5625q0.796875 1.28125 2.140625 1.28125q1.09375 0 1.890625 -0.9375q0.796875 -0.953125 0.796875 -2.84375q0 -1.921875 -0.765625 -2.84375q-0.765625 -0.921875 -1.84375 -0.921875q-1.09375 0 -1.890625 0.953125q-0.796875 0.953125 -0.796875 2.75z" fill-rule="nonzero"></path><path fill="#000000" fill-opacity="0.0" d="m984.0 352.0l72.0 0l0 48.0l-72.0 0z" fill-rule="nonzero"></path><path fill="#000000" d="m1004.6637 382.16406l-3.609375 -13.59375l1.84375 0l2.0625 8.90625q0.34375 1.40625 0.578125 2.78125q0.515625 -2.171875 0.609375 -2.515625l2.59375 -9.171875l2.171875 0l1.953125 6.875q0.734375 2.5625 1.046875 4.8125q0.265625 -1.28125 0.6875 -2.953125l2.125 -8.734375l1.8125 0l-3.734375 13.59375l-1.734375 0l-2.859375 -10.359375q-0.359375 -1.296875 -0.421875 -1.59375q-0.21875 0.9375 -0.40625 1.59375l-2.890625 10.359375l-1.828125 0zm21.764893 -3.171875l1.71875 0.21875q-0.40625 1.5 -1.515625 2.34375q-1.09375 0.828125 -2.8125 0.828125q-2.15625 0 -3.421875 -1.328125q-1.265625 -1.328125 -1.265625 -3.734375q0 -2.484375 1.265625 -3.859375q1.28125 -1.375 3.328125 -1.375q1.984375 0 3.234375 1.34375q1.25 1.34375 1.25 3.796875q0 0.140625 -0.015625 0.4375l-7.34375 0q0.09375 1.625 0.921875 2.484375q0.828125 0.859375 2.0625 0.859375q0.90625 0 1.546875 -0.46875q0.65625 -0.484375 1.046875 -1.546875zm-5.484375 -2.703125l5.5 0q-0.109375 -1.234375 -0.625 -1.859375q-0.796875 -0.96875 -2.078125 -0.96875q-1.140625 0 -1.9375 0.78125q-0.78125 0.765625 -0.859375 2.046875zm10.656982 5.875l-1.546875 0l0 -13.59375l1.65625 0l0 4.84375q1.0625 -1.328125 2.703125 -1.328125q0.90625 0 1.71875 0.375q0.8125 0.359375 1.328125 1.03125q0.53125 0.65625 0.828125 1.59375q0.296875 0.9375 0.296875 2.0q0 2.53125 -1.25 3.921875q-1.25 1.375 -3.0 1.375q-1.75 0 -2.734375 -1.453125l0 1.234375zm-0.015625 -5.0q0 1.765625 0.46875 2.5625q0.796875 1.28125 2.140625 1.28125q1.09375 0 1.890625 -0.9375q0.796875 -0.953125 0.796875 -2.84375q0 -1.921875 -0.765625 -2.84375q-0.765625 -0.921875 -1.84375 -0.921875q-1.09375 0 -1.890625 0.953125q-0.796875 0.953125 -0.796875 2.75z" fill-rule="nonzero"></path></g></svg>

